HIERARCHY
ROOT Hips
{
    OFFSET 0.000000 97.120003 0.000000
    CHANNELS 6 Xposition Yposition Zposition Yrotation Xrotation Zrotation
    JOINT RightUpLeg
    {
        OFFSET -11.000000 -0.000000 0.000000
        CHANNELS 3 Yrotation Xrotation Zrotation
        JOINT RightLeg
        {
            OFFSET 0.000000 -45.062000 0.000000
            CHANNELS 3 Yrotation Xrotation Zrotation
            JOINT RightFoot
            {
                OFFSET 0.000000 -42.057999 0.000000
                CHANNELS 3 Yrotation Xrotation Zrotation
                End Site
                {
                    OFFSET 0.000000 -10.000000 15.120000
                }
            }
        }
    }
    JOINT LeftUpLeg
    {
        OFFSET 11.000000 -0.000000 0.000000
        CHANNELS 3 Yrotation Xrotation Zrotation
        JOINT LeftLeg
        {
            OFFSET 0.000000 -45.062000 0.000000
            CHANNELS 3 Yrotation Xrotation Zrotation
            JOINT LeftFoot
            {
                OFFSET 0.000000 -42.057999 0.000000
                CHANNELS 3 Yrotation Xrotation Zrotation
                End Site
                {
                    OFFSET 0.000000 -10.000000 15.120000
                }
            }
        }
    }
    JOINT Spine
    {
        OFFSET 0.000000 8.120000 0.000000
        CHANNELS 3 Yrotation Xrotation Zrotation
        JOINT Spine1
        {
            OFFSET 0.000000 17.980000 0.000000
            CHANNELS 3 Yrotation Xrotation Zrotation
            JOINT Spine2
            {
                OFFSET 0.000000 12.760000 0.000000
                CHANNELS 3 Yrotation Xrotation Zrotation
                JOINT Neck
                {
                    OFFSET 0.000000 19.139999 0.000000
                    CHANNELS 3 Yrotation Xrotation Zrotation
                    JOINT Neck1
                    {
                        OFFSET 0.000000 4.250000 0.000000
                        CHANNELS 3 Yrotation Xrotation Zrotation
                        JOINT Head
                        {
                            OFFSET 0.000000 4.250000 0.000000
                            CHANNELS 3 Yrotation Xrotation Zrotation
                            End Site
                            {
                                OFFSET 0.000000 19.120001 0.000000
                            }
                        }
                    }
                }
                JOINT RightShoulder
                {
                    OFFSET -2.900000 13.340000 0.000000
                    CHANNELS 3 Yrotation Xrotation Zrotation
                    JOINT RightArm
                    {
                        OFFSET -16.100000 0.000000 0.000000
                        CHANNELS 3 Yrotation Xrotation Zrotation
                        JOINT RightForeArm
                        {
                            OFFSET -28.000000 0.000000 0.000000
                            CHANNELS 3 Yrotation Xrotation Zrotation
                            JOINT RightHand
                            {
                                OFFSET -26.000000 0.000000 0.000000
                                CHANNELS 3 Yrotation Xrotation Zrotation
                                JOINT RightHandThumb1
                                {
                                    OFFSET -1.937000 -0.484000 2.518000
                                    CHANNELS 3 Yrotation Xrotation Zrotation
                                    JOINT RightHandThumb2
                                    {
                                        OFFSET -3.872000 0.000000 0.000000
                                        CHANNELS 3 Yrotation Xrotation Zrotation
                                        JOINT RightHandThumb3
                                        {
                                            OFFSET -2.690000 0.000000 0.000000
                                            CHANNELS 3 Yrotation Xrotation Zrotation
                                            End Site
                                            {
                                                OFFSET -2.537000 0.000000 0.000000
                                            }
                                        }
                                    }
                                }
                                JOINT RightInHandIndex
                                {
                                    OFFSET -3.389000 0.535000 2.080000
                                    CHANNELS 3 Yrotation Xrotation Zrotation
                                    JOINT RightHandIndex1
                                    {
                                        OFFSET -5.485000 -0.096000 1.051000
                                        CHANNELS 3 Yrotation Xrotation Zrotation
                                        JOINT RightHandIndex2
                                        {
                                            OFFSET -3.806000 0.000000 0.000000
                                            CHANNELS 3 Yrotation Xrotation Zrotation
                                            JOINT RightHandIndex3
                                            {
                                                OFFSET -2.158000 0.000000 0.000000
                                                CHANNELS 3 Yrotation Xrotation Zrotation
                                                End Site
                                                {
                                                    OFFSET -1.898000 0.000000 0.000000
                                                }
                                            }
                                        }
                                    }
                                }
                                JOINT RightInHandMiddle
                                {
                                    OFFSET -3.556000 0.544000 0.796000
                                    CHANNELS 3 Yrotation Xrotation Zrotation
                                    JOINT RightHandMiddle1
                                    {
                                        OFFSET -5.441000 -0.088000 0.330000
                                        CHANNELS 3 Yrotation Xrotation Zrotation
                                        JOINT RightHandMiddle2
                                        {
                                            OFFSET -4.153000 0.000000 0.000000
                                            CHANNELS 3 Yrotation Xrotation Zrotation
                                            JOINT RightHandMiddle3
                                            {
                                                OFFSET -2.603000 0.000000 0.000000
                                                CHANNELS 3 Yrotation Xrotation Zrotation
                                                End Site
                                                {
                                                    OFFSET -2.076000 0.000000 0.000000
                                                }
                                            }
                                        }
                                    }
                                }
                                JOINT RightInHandRing
                                {
                                    OFFSET -3.539000 0.566000 -0.136000
                                    CHANNELS 3 Yrotation Xrotation Zrotation
                                    JOINT RightHandRing1
                                    {
                                        OFFSET -4.873000 -0.023000 -0.504000
                                        CHANNELS 3 Yrotation Xrotation Zrotation
                                        JOINT RightHandRing2
                                        {
                                            OFFSET -3.619000 0.000000 0.000000
                                            CHANNELS 3 Yrotation Xrotation Zrotation
                                            JOINT RightHandRing3
                                            {
                                                OFFSET -2.511000 0.000000 0.000000
                                                CHANNELS 3 Yrotation Xrotation Zrotation
                                                End Site
                                                {
                                                    OFFSET -1.952000 0.000000 0.000000
                                                }
                                            }
                                        }
                                    }
                                }
                                JOINT RightInHandPinky
                                {
                                    OFFSET -3.324000 0.494000 -1.264000
                                    CHANNELS 3 Yrotation Xrotation Zrotation
                                    JOINT RightHandPinky1
                                    {
                                        OFFSET -4.354000 -0.023000 -1.147000
                                        CHANNELS 3 Yrotation Xrotation Zrotation
                                        JOINT RightHandPinky2
                                        {
                                            OFFSET -2.898000 0.000000 0.000000
                                            CHANNELS 3 Yrotation Xrotation Zrotation
                                            JOINT RightHandPinky3
                                            {
                                                OFFSET -1.831000 0.000000 0.000000
                                                CHANNELS 3 Yrotation Xrotation Zrotation
                                                End Site
                                                {
                                                    OFFSET -1.730000 0.000000 0.000000
                                                }
                                            }
                                        }
                                    }
                                }
                            }
                        }
                    }
                }
                JOINT LeftShoulder
                {
                    OFFSET 2.900000 13.340000 0.000000
                    CHANNELS 3 Yrotation Xrotation Zrotation
                    JOINT LeftArm
                    {
                        OFFSET 16.100000 0.000000 0.000000
                        CHANNELS 3 Yrotation Xrotation Zrotation
                        JOINT LeftForeArm
                        {
                            OFFSET 28.000000 0.000000 0.000000
                            CHANNELS 3 Yrotation Xrotation Zrotation
                            JOINT LeftHand
                            {
                                OFFSET 26.000000 0.000000 0.000000
                                CHANNELS 3 Yrotation Xrotation Zrotation
                                JOINT LeftHandThumb1
                                {
                                    OFFSET 1.937000 -0.484000 2.518000
                                    CHANNELS 3 Yrotation Xrotation Zrotation
                                    JOINT LeftHandThumb2
                                    {
                                        OFFSET 3.872000 0.000000 0.000000
                                        CHANNELS 3 Yrotation Xrotation Zrotation
                                        JOINT LeftHandThumb3
                                        {
                                            OFFSET 2.690000 0.000000 0.000000
                                            CHANNELS 3 Yrotation Xrotation Zrotation
                                            End Site
                                            {
                                                OFFSET 2.537000 0.000000 0.000000
                                            }
                                        }
                                    }
                                }
                                JOINT LeftInHandIndex
                                {
                                    OFFSET 3.389000 0.535000 2.080000
                                    CHANNELS 3 Yrotation Xrotation Zrotation
                                    JOINT LeftHandIndex1
                                    {
                                        OFFSET 5.485000 -0.096000 1.051000
                                        CHANNELS 3 Yrotation Xrotation Zrotation
                                        JOINT LeftHandIndex2
                                        {
                                            OFFSET 3.806000 0.000000 0.000000
                                            CHANNELS 3 Yrotation Xrotation Zrotation
                                            JOINT LeftHandIndex3
                                            {
                                                OFFSET 2.158000 0.000000 0.000000
                                                CHANNELS 3 Yrotation Xrotation Zrotation
                                                End Site
                                                {
                                                    OFFSET 1.898000 0.000000 0.000000
                                                }
                                            }
                                        }
                                    }
                                }
                                JOINT LeftInHandMiddle
                                {
                                    OFFSET 3.556000 0.544000 0.796000
                                    CHANNELS 3 Yrotation Xrotation Zrotation
                                    JOINT LeftHandMiddle1
                                    {
                                        OFFSET 5.441000 -0.088000 0.330000
                                        CHANNELS 3 Yrotation Xrotation Zrotation
                                        JOINT LeftHandMiddle2
                                        {
                                            OFFSET 4.153000 0.000000 0.000000
                                            CHANNELS 3 Yrotation Xrotation Zrotation
                                            JOINT LeftHandMiddle3
                                            {
                                                OFFSET 2.603000 0.000000 0.000000
                                                CHANNELS 3 Yrotation Xrotation Zrotation
                                                End Site
                                                {
                                                    OFFSET 2.076000 0.000000 0.000000
                                                }
                                            }
                                        }
                                    }
                                }
                                JOINT LeftInHandRing
                                {
                                    OFFSET 3.539000 0.566000 -0.136000
                                    CHANNELS 3 Yrotation Xrotation Zrotation
                                    JOINT LeftHandRing1
                                    {
                                        OFFSET 4.873000 -0.023000 -0.504000
                                        CHANNELS 3 Yrotation Xrotation Zrotation
                                        JOINT LeftHandRing2
                                        {
                                            OFFSET 3.619000 0.000000 0.000000
                                            CHANNELS 3 Yrotation Xrotation Zrotation
                                            JOINT LeftHandRing3
                                            {
                                                OFFSET 2.511000 0.000000 0.000000
                                                CHANNELS 3 Yrotation Xrotation Zrotation
                                                End Site
                                                {
                                                    OFFSET 1.952000 0.000000 0.000000
                                                }
                                            }
                                        }
                                    }
                                }
                                JOINT LeftInHandPinky
                                {
                                    OFFSET 3.324000 0.494000 -1.264000
                                    CHANNELS 3 Yrotation Xrotation Zrotation
                                    JOINT LeftHandPinky1
                                    {
                                        OFFSET 4.354000 -0.023000 -1.147000
                                        CHANNELS 3 Yrotation Xrotation Zrotation
                                        JOINT LeftHandPinky2
                                        {
                                            OFFSET 2.898000 0.000000 0.000000
                                            CHANNELS 3 Yrotation Xrotation Zrotation
                                            JOINT LeftHandPinky3
                                            {
                                                OFFSET 1.831000 0.000000 0.000000
                                                CHANNELS 3 Yrotation Xrotation Zrotation
                                                End Site
                                                {
                                                    OFFSET 1.730000 0.000000 0.000000
                                                }
                                            }
                                        }
                                    }
                                }
                            }
                        }
                    }
                }
            }
        }
    }
}
MOTION
Frames: 4
Frame Time: 0.010417
76.771477 97.110893 -42.462055 169.065979 0.574286 -0.217977 3.046199 6.132325 -3.255485 0.417038 -4.438695 2.215598 3.829526 -0.644331 2.945862 7.147584 6.080922 0.725229 175.097229 -176.248199 -179.048477 6.761841 -1.109639 -2.837004 1.141968 0.812089 -0.337878 1.141927 0.801312 -0.574141 5.343264 0.679063 -0.667271 179.999969 -175.201004 177.830170 179.999954 -174.401169 177.752655 161.579147 -175.684418 -179.994812 2.852823 -0.603931 6.290848 13.739970 -2.027578 60.010704 69.456932 19.355780 2.278041 158.329056 -173.751129 -137.484940 83.412598 20.271236 44.259277 0.000000 -0.000000 8.873138 0.000000 0.000007 5.909512 0.000000 -0.000000 0.000000 15.000000 -0.000002 9.530085 0.000003 -0.000000 7.797346 0.000002 -0.000003 5.458142 0.000000 -0.000000 0.000000 180.000000 180.000000 -167.991608 0.000001 -0.000000 12.008395 0.000000 0.000003 7.997591 0.000000 -0.000000 0.000000 170.000000 -179.999985 -167.903076 180.000000 180.000000 -167.903076 180.000000 -180.000000 -171.943451 0.000000 -0.000000 0.000000 160.000015 180.000000 -177.043243 0.000004 0.000003 4.435122 180.000000 -180.000000 -177.046204 175.221375 -176.722809 169.322372 166.105560 166.446671 110.865448 133.380051 167.706253 -179.011047 174.679352 179.000366 157.275208 100.705719 136.829254 154.326324 0.000000 -0.000000 1.945550 180.000000 180.000000 -178.704269 0.000000 -0.000000 0.000000 165.000015 180.000000 168.415009 0.000002 -0.000003 -9.478628 0.000000 -0.000003 -6.635040 0.000000 -0.000000 0.000000 0.000003 0.000001 -17.414503 0.000000 0.000000 -17.414509 0.000000 0.000000 -11.598061 0.000000 -0.000000 0.000000 10.000002 -0.000001 -19.468973 0.000003 0.000000 -19.468979 180.000000 -180.000000 167.033676 0.000000 -0.000000 0.000000 20.000002 0.000003 -15.764942 0.000001 0.000004 -23.647415 180.000000 -179.999985 164.250824
76.778725 97.113609 -42.472439 169.085190 0.548391 -0.233541 3.068586 6.160706 -3.225496 0.401263 -4.421524 2.211797 3.807207 -0.660910 2.936809 7.150942 6.106905 0.746019 175.087662 -176.255081 -179.043289 6.747920 -1.116987 -2.840070 1.138256 0.803968 -0.340748 1.138213 0.793366 -0.578778 5.325899 0.673854 -0.674234 179.999954 -175.300171 177.812576 179.999939 -174.516861 177.734451 160.897736 -175.762711 -179.980087 2.792921 -0.589274 6.311053 13.762350 -1.924180 60.623264 68.833977 19.137064 2.697741 158.497757 -173.637711 -137.880493 83.399208 20.468693 44.533619 0.000000 -0.000003 8.948562 180.000000 -179.999985 -174.040253 0.000000 -0.000000 0.000000 15.000006 0.000004 9.412047 180.000000 -179.999985 -172.299225 180.000000 -179.999985 -174.609467 0.000000 -0.000000 0.000000 180.000000 180.000000 -168.097809 180.000000 -179.999985 -168.097809 0.000000 -0.000000 7.926851 0.000000 -0.000000 0.000000 170.000000 -180.000000 -168.007828 0.000000 0.000003 11.992166 0.000000 -0.000000 7.986786 0.000000 -0.000000 0.000000 160.000015 180.000000 -176.941711 180.000000 180.000000 -175.412567 0.000000 0.000003 3.055232 175.192429 -176.722656 169.330322 165.955231 166.444214 110.811928 133.342148 167.991898 -179.196030 174.644638 179.037933 157.329208 100.623360 136.810394 154.354874 180.000000 180.000000 -177.979446 180.000000 -179.999985 -178.654327 0.000000 -0.000000 0.000000 165.000000 179.999985 168.393112 180.000000 -179.999985 170.503464 0.000000 0.000000 -6.647581 0.000000 -0.000000 0.000000 0.000000 0.000000 -17.462875 0.000001 -0.000003 -17.462877 0.000001 -0.000003 -11.630274 0.000000 -0.000000 0.000000 9.999996 0.000001 -19.535597 180.000000 180.000000 160.464386 0.000000 0.000000 -13.010706 0.000000 -0.000000 0.000000 19.999998 -0.000002 -15.818862 180.000000 179.999985 156.271713 180.000000 -180.000000 164.196960
76.785629 97.116074 -42.481480 169.101379 0.526071 -0.244527 3.078943 6.186182 -3.200718 0.397326 -4.406778 2.206308 3.787429 -0.676411 2.927560 7.152240 6.125931 0.760835 175.079834 -176.266830 -179.038925 6.735206 -1.125563 -2.842455 1.133765 0.796006 -0.344511 1.133721 0.785589 -0.584896 5.304927 0.668963 -0.683147 179.999954 -175.395828 177.803513 179.999939 -174.628464 177.725067 160.252594 -175.839417 -179.963608 2.748759 -0.567820 6.327728 13.800559 -1.798347 61.192062 68.221107 18.965868 3.063122 158.722046 -173.523560 -138.262192 83.443840 20.703247 44.831799 0.000000 -0.000000 8.947122 0.000000 -0.000000 5.958782 0.000000 -0.000000 0.000000 15.000008 0.000004 9.308122 180.000000 180.000000 -172.384277 0.000002 -0.000003 5.331014 0.000000 -0.000000 0.000000 0.000001 -0.000007 11.785062 0.000001 -0.000000 11.785064 180.000000 180.000000 -172.151154 0.000000 -0.000000 0.000000 170.000000 -179.999985 -168.137878 0.000002 0.000002 11.862121 0.000002 -0.000000 7.900176 0.000000 -0.000000 0.000000 160.000015 -180.000000 -176.773407 0.000002 -0.000000 4.839862 0.000003 0.000002 3.223352 175.179489 -176.721176 169.335800 165.782745 166.438644 110.761673 133.319763 168.280014 -179.375900 174.614182 179.076981 157.389481 100.549805 136.775482 154.425827 180.000000 180.000000 -177.887222 0.000002 -0.000003 1.407109 0.000000 -0.000000 0.000000 165.000000 179.999985 168.365280 0.000001 0.000004 -9.519319 180.000000 179.999985 173.336487 0.000000 -0.000000 0.000000 0.000000 0.000000 -17.513918 0.000003 0.000004 -17.513918 0.000000 0.000000 -11.664271 0.000000 -0.000000 0.000000 9.999996 0.000000 -19.601280 180.000000 180.000000 160.398727 180.000000 -179.999985 166.945541 0.000000 -0.000000 0.000000 20.000002 0.000003 -15.870317 180.000000 180.000000 156.194534 180.000000 -179.999985 164.145554
76.791710 97.117889 -42.488922 169.112076 0.508423 -0.250813 3.070884 6.206825 -3.182566 0.414896 -4.395145 2.198299 3.769541 -0.691222 2.919148 7.150057 6.137532 0.768832 175.078644 -176.282608 -179.033859 6.724907 -1.135044 -2.845030 1.128955 0.789296 -0.348584 1.128911 0.779043 -0.591548 5.282500 0.665011 -0.692660 179.999954 -175.481277 177.803055 179.999954 -174.728149 177.724579 159.676971 -175.909027 -179.946045 2.723729 -0.541459 6.344697 13.839306 -1.664660 61.653824 67.651222 18.841507 3.366468 158.997940 -173.364365 -138.640335 83.429565 20.999992 44.869801 180.000000 -179.999985 -171.129715 0.000001 0.000003 5.907606 0.000000 -0.000000 0.000000 15.000002 -0.000000 9.159850 180.000000 180.000000 -172.505585 180.000000 -179.999985 -174.753906 0.000000 -0.000000 0.000000 180.000000 -179.999985 -168.394974 0.000001 -0.000004 11.605017 0.000000 -0.000000 7.728939 0.000000 -0.000000 0.000000 170.000000 -179.999985 -168.334930 180.000000 -180.000000 -168.334930 180.000000 180.000000 -172.231064 0.000000 -0.000000 0.000000 160.000000 -179.999985 -176.844055 0.000002 -0.000002 4.733924 180.000000 -180.000000 -176.847214 175.182861 -176.713867 169.339157 165.579987 166.422928 110.710129 133.316925 168.568024 -179.530792 174.592850 179.116882 157.453720 100.489105 136.734436 154.546616 180.000000 179.999985 -177.778305 0.000002 -0.000000 1.479650 0.000000 -0.000000 0.000000 165.000015 -180.000000 168.334015 180.000000 -179.999985 170.455109 180.000000 -179.999985 173.318573 0.000000 -0.000000 0.000000 180.000000 179.999985 162.430801 0.000000 0.000000 -17.569204 0.000000 -0.000003 -11.701093 0.000000 -0.000000 0.000000 9.999997 0.000003 -19.672247 0.000001 0.000002 -19.672255 0.000000 0.000000 -13.101723 0.000000 -0.000000 0.000000 20.000000 0.000004 -15.932301 0.000001 0.000002 -23.898451 0.000004 0.000006 -15.916369
